<svg width="113" height="39" viewBox="0 0 113 39" fill="none" xmlns="http://www.w3.org/2000/svg">
<path d="M65.3546 15.362C63.8161 15.362 62.6512 15.8565 61.86 16.8455C61.0687 17.8126 60.6731 19.2522 60.6731 21.1644C60.6731 25.0107 62.2336 26.9339 65.3546 26.9339C66.4536 26.9339 67.5855 26.5492 68.7504 25.78C69.102 25.5822 69.4977 25.5272 69.9372 25.6151C70.3768 25.7031 70.7175 25.9228 70.9593 26.2745C71.201 26.6042 71.256 26.9119 71.1241 27.1976C71.0142 27.4833 70.8054 27.7361 70.4977 27.9559C69.6845 28.4614 68.8603 28.846 68.0251 29.1098C67.1899 29.3735 66.2997 29.5054 65.3546 29.5054C64.0359 29.5054 62.882 29.3076 61.893 28.912C60.9259 28.5164 60.1127 27.9559 59.4533 27.2306C58.7939 26.5053 58.2994 25.6261 57.9697 24.5931C57.64 23.5601 57.4752 22.4172 57.4752 21.1644C57.4752 19.9775 57.629 18.8786 57.9367 17.8676C58.2444 16.8345 58.717 15.9554 59.3544 15.2301C59.9918 14.4828 60.805 13.9004 61.794 13.4828C62.8051 13.0432 63.9919 12.8234 65.3546 12.8234C67.2228 12.8234 68.9372 13.3399 70.4977 14.3729C71.1571 14.8564 71.267 15.4718 70.8274 16.2191C70.6516 16.5488 70.3219 16.7137 69.8383 16.7137C69.3548 16.7137 68.9592 16.6257 68.6515 16.4499C67.5525 15.7246 66.4536 15.362 65.3546 15.362ZM90.3044 12.8893C90.744 12.8893 91.1177 13.0212 91.4254 13.2849C91.7331 13.5267 91.8869 13.8124 91.8869 14.1421V28.2196C91.8869 28.5493 91.7331 28.846 91.4254 29.1098C91.1177 29.3735 90.744 29.5054 90.3044 29.5054C89.8649 29.5054 89.4912 29.3735 89.1835 29.1098C88.8758 28.846 88.7219 28.5493 88.7219 28.2196V18.2961L85.557 22.615C85.4251 22.8128 85.2383 22.9557 84.9965 23.0436C84.7547 23.1315 84.513 23.1755 84.2712 23.1755C83.9855 23.1755 83.7217 23.1315 83.48 23.0436C83.2382 22.9557 83.0624 22.8128 82.9525 22.615L79.7875 18.2961V28.2196C79.7875 28.5493 79.6227 28.846 79.293 29.1098C78.9853 29.3735 78.6116 29.5054 78.1721 29.5054C77.7545 29.5054 77.3808 29.3735 77.0511 29.1098C76.7434 28.846 76.5896 28.5493 76.5896 28.2196V14.1421C76.5896 13.8124 76.7434 13.5267 77.0511 13.2849C77.3808 13.0212 77.7545 12.8893 78.1721 12.8893C78.7655 12.8893 79.1941 13.0542 79.4578 13.3839L84.2712 20.0435L88.9857 13.3839C89.1176 13.208 89.3044 13.0871 89.5462 13.0212C89.7879 12.9333 90.0407 12.8893 90.3044 12.8893ZM104.738 12.9553C108.474 12.9553 110.342 14.5158 110.342 17.6368C110.342 19.2193 109.881 20.4281 108.958 21.2633C108.056 22.0985 106.65 22.5161 104.738 22.5161H100.946V28.1207C100.946 28.4724 100.792 28.7801 100.485 29.0439C100.177 29.2856 99.8033 29.4065 99.3637 29.4065C98.9241 29.4065 98.5505 29.2856 98.2428 29.0439C97.9351 28.7801 97.7812 28.4724 97.7812 28.1207V14.274C97.7812 13.9883 97.8911 13.7025 98.1109 13.4168C98.3527 13.1091 98.6934 12.9553 99.1329 12.9553H104.738ZM104.738 19.9775C105.287 19.9775 105.727 19.9116 106.056 19.7797C106.386 19.6479 106.639 19.472 106.815 19.2522C107.012 19.0324 107.144 18.7907 107.21 18.5269C107.276 18.2632 107.309 17.9994 107.309 17.7357C107.309 17.4939 107.276 17.2412 107.21 16.9774C107.144 16.7137 107.023 16.4719 106.848 16.2521C106.672 16.0323 106.408 15.8565 106.056 15.7246C105.727 15.5708 105.287 15.4938 104.738 15.4938H100.946V19.9775H104.738Z" fill="white" fill-opacity="0.85"/>
<path d="M35.7341 9.67865C35.4023 5.69366 32.0629 2.56279 27.9921 2.56279C25.9811 2.56279 24.1484 3.32693 22.7687 4.5808C21.3679 1.86048 18.5322 0 15.2616 0C10.601 0 6.82282 3.77813 6.82282 8.43876C6.82282 8.8565 6.85331 9.26726 6.91196 9.66891C2.99875 10.2632 0 13.6423 0 17.7215C0 22.2199 3.64686 25.8668 8.1453 25.8668H34.4387C38.9371 25.8668 42.584 22.2199 42.584 17.7215C42.584 13.6636 39.617 10.299 35.7341 9.67865Z" fill="#FFB11A"/>
<path d="M39.0383 10.9993C39.9384 12.3092 40.4667 13.8945 40.4667 15.604C40.4667 20.1024 36.8198 23.7493 32.3214 23.7493H6.02818C4.31993 23.7493 2.73534 23.2225 1.42578 22.3237C2.89371 24.4628 5.3553 25.8666 8.14549 25.8666H34.4389C38.9373 25.8666 42.5842 22.2197 42.5842 17.7213C42.584 14.9294 41.1794 12.4666 39.0383 10.9993Z" fill="#F79219"/>
<path d="M39.6404 11.4553C40.8163 12.8669 41.525 14.6815 41.525 16.6626C41.525 21.1611 37.8781 24.8079 33.3797 24.8079H7.08648C5.10679 24.8079 3.29247 24.1012 1.88086 22.9267C3.37505 24.7226 5.62617 25.8666 8.14514 25.8666H34.4385C38.937 25.8666 42.5838 22.2197 42.5838 17.7213C42.5836 15.2008 41.4384 12.9491 39.6404 11.4553Z" fill="#EF7816"/>
<path d="M1.8809 20.9755C1.71575 20.9755 1.56331 20.8782 1.49555 20.7278C1.06574 19.7793 0.847656 18.7693 0.847656 17.7212C0.847656 15.966 1.48073 14.2679 2.62831 12.9425C3.76743 11.6319 5.33424 10.7659 7.04079 10.5076L7.8729 10.3805L7.75221 9.5463C7.69716 9.17789 7.66963 8.80525 7.66963 8.43895C7.67175 4.25303 11.0764 0.848389 15.2623 0.848389C18.1186 0.848389 20.7059 2.4279 22.0144 4.97079L22.5205 5.95323L23.3377 5.21005C24.6124 4.04976 26.266 3.41034 27.9937 3.41034C29.0968 3.41034 30.1957 3.67712 31.1718 4.18104C31.2713 4.23397 31.3454 4.32078 31.3793 4.42876C31.4153 4.53675 31.4047 4.65108 31.3518 4.75271C31.248 4.95386 30.9855 5.03855 30.7822 4.9348C29.9268 4.49016 28.9613 4.25726 27.9937 4.25726C26.4777 4.25726 25.0274 4.81835 23.9073 5.83677L22.6814 6.95048C22.584 7.03941 22.4485 7.07752 22.3214 7.05423C22.1923 7.03094 22.0801 6.94625 22.0208 6.83191L21.2607 5.35826C20.0982 3.09909 17.7988 1.69531 15.2623 1.6932C13.4626 1.69531 11.7709 2.39614 10.4941 3.67288C9.21951 4.9475 8.51656 6.64135 8.51656 8.43895C8.51656 8.76502 8.54197 9.09532 8.58855 9.4235L8.77275 10.6748C8.80451 10.9035 8.64571 11.1195 8.41704 11.1533L7.16783 11.3439C5.66031 11.5726 4.27558 12.3369 3.26986 13.4972C2.25355 14.6681 1.69458 16.1693 1.69458 17.7212C1.69458 18.6465 1.88726 19.54 2.26625 20.3785C2.31284 20.4801 2.31707 20.5965 2.27684 20.7024C2.23661 20.8083 2.15827 20.8909 2.05664 20.9374C1.99947 20.9628 1.94231 20.9755 1.8809 20.9755ZM32.3617 5.94687C32.2559 5.94687 32.1542 5.90665 32.078 5.83677C32.0759 5.83677 32.0759 5.83466 32.0759 5.83466C31.9044 5.67798 31.8917 5.41119 32.0484 5.23758C32.1987 5.07242 32.4803 5.05972 32.6454 5.20793L32.6476 5.21005C32.7301 5.28627 32.7788 5.39002 32.7852 5.50224C32.7894 5.61657 32.7513 5.72456 32.6751 5.80713C32.5946 5.89606 32.4803 5.94687 32.3617 5.94687Z" fill="#FFC91D"/>
<path d="M21.2926 38.6218C27.6301 38.6218 32.7678 33.4842 32.7678 27.1466C32.7678 20.809 27.6301 15.6714 21.2926 15.6714C14.955 15.6714 9.81738 20.809 9.81738 27.1466C9.81738 33.4842 14.955 38.6218 21.2926 38.6218Z" fill="#828282"/>
<path d="M28.2771 18.0444C29.7641 19.9794 30.6502 22.4002 30.6502 25.029C30.6502 31.3666 25.5126 36.5042 19.175 36.5042C16.546 36.5042 14.1252 35.6181 12.1904 34.1311C14.2883 36.8606 17.5839 38.6215 21.2923 38.6215C27.6299 38.6215 32.7675 33.4839 32.7675 27.1463C32.7675 23.4379 31.0066 20.1421 28.2771 18.0444Z" fill="#686868"/>
<path d="M27.1012 27.6197C26.9875 27.4902 26.9248 27.3239 26.9248 27.1516C26.9248 26.9793 26.9875 26.8129 27.1012 26.6835L28.0089 25.6623C28.109 25.5507 28.1711 25.4103 28.1864 25.2612C28.2017 25.1121 28.1693 24.9621 28.094 24.8325L26.6756 22.3787C26.6011 22.2492 26.4876 22.1467 26.3513 22.0855C26.2151 22.0244 26.063 22.0079 25.9168 22.0382L24.5835 22.3077C24.4138 22.3428 24.2372 22.3145 24.087 22.2283C23.9367 22.1421 23.8232 22.0038 23.7679 21.8397L23.3353 20.5418C23.2877 20.401 23.1971 20.2786 23.0762 20.1921C22.9553 20.1055 22.8102 20.0592 22.6615 20.0596H19.8247C19.6701 20.0515 19.517 20.0943 19.389 20.1813C19.2609 20.2684 19.1649 20.395 19.1155 20.5418L18.7184 21.8397C18.6631 22.0038 18.5496 22.1421 18.3993 22.2283C18.2491 22.3145 18.0724 22.3428 17.9028 22.3077L16.534 22.0382C16.3954 22.0186 16.2541 22.0405 16.1279 22.1011C16.0017 22.1617 15.8962 22.2582 15.8248 22.3787L14.4064 24.8325C14.3292 24.9606 14.2945 25.1099 14.3073 25.2589C14.32 25.4079 14.3795 25.5491 14.4773 25.6623L15.378 26.6835C15.4917 26.8129 15.5544 26.9793 15.5544 27.1516C15.5544 27.3239 15.4917 27.4902 15.378 27.6197L14.4773 28.6409C14.3795 28.7541 14.32 28.8953 14.3073 29.0443C14.2945 29.1933 14.3292 29.3426 14.4064 29.4707L15.8248 31.9245C15.8994 32.0539 16.0129 32.1565 16.1491 32.2176C16.2854 32.2788 16.4375 32.2953 16.5837 32.2649L17.917 31.9954C18.0866 31.9604 18.2632 31.9886 18.4135 32.0749C18.5638 32.1611 18.6772 32.2993 18.7326 32.4635L19.1652 33.7614C19.2145 33.9081 19.3106 34.0348 19.4386 34.1218C19.5667 34.2089 19.7197 34.2517 19.8744 34.2436H22.7112C22.8599 34.244 23.0049 34.1976 23.1258 34.1111C23.2467 34.0246 23.3374 33.9022 23.3849 33.7614L23.8175 32.4635C23.8729 32.2993 23.9864 32.1611 24.1366 32.0749C24.2869 31.9886 24.4635 31.9604 24.6331 31.9954L25.9664 32.2649C26.1126 32.2953 26.2647 32.2788 26.401 32.2176C26.5373 32.1565 26.6507 32.0539 26.7253 31.9245L28.1437 29.4707C28.219 29.3411 28.2513 29.191 28.236 29.042C28.2207 28.8929 28.1586 28.7525 28.0586 28.6409L27.1012 27.6197ZM26.0444 28.57L26.6118 29.2083L25.704 30.7827L24.8672 30.6125C24.3564 30.5081 23.825 30.5949 23.374 30.8563C22.923 31.1178 22.5836 31.5358 22.4204 32.0309L22.1509 32.8252H20.3354L20.08 32.0167C19.9168 31.5216 19.5775 31.1036 19.1265 30.8421C18.6754 30.5807 18.1441 30.4939 17.6333 30.5983L16.7964 30.7685L15.8745 29.2012L16.4418 28.5629C16.7907 28.1728 16.9836 27.6678 16.9836 27.1445C16.9836 26.6212 16.7907 26.1162 16.4418 25.7261L15.8745 25.0878L16.7823 23.5276L17.6191 23.6978C18.1299 23.8022 18.6612 23.7154 19.1123 23.4539C19.5633 23.1925 19.9026 22.7745 20.0659 22.2794L20.3354 21.478H22.1509L22.4204 22.2865C22.5836 22.7816 22.923 23.1996 23.374 23.461C23.825 23.7225 24.3564 23.8093 24.8672 23.7049L25.704 23.5347L26.6118 25.1091L26.0444 25.7474C25.6995 26.1365 25.509 26.6386 25.509 27.1587C25.509 27.6788 25.6995 28.1808 26.0444 28.57ZM21.2431 24.3148C20.6821 24.3148 20.1336 24.4812 19.6671 24.7929C19.2006 25.1046 18.837 25.5476 18.6223 26.066C18.4076 26.5843 18.3514 27.1547 18.4608 27.705C18.5703 28.2553 18.8405 28.7608 19.2372 29.1575C19.6339 29.5543 20.1394 29.8244 20.6897 29.9339C21.24 30.0433 21.8104 29.9872 22.3287 29.7725C22.8471 29.5577 23.2901 29.1941 23.6019 28.7276C23.9136 28.2611 24.08 27.7127 24.08 27.1516C24.08 26.3992 23.7811 25.6777 23.2491 25.1457C22.7171 24.6137 21.9955 24.3148 21.2431 24.3148ZM21.2431 28.57C20.9626 28.57 20.6884 28.4868 20.4551 28.3309C20.2219 28.1751 20.0401 27.9536 19.9327 27.6944C19.8253 27.4352 19.7973 27.15 19.852 26.8749C19.9067 26.5997 20.0418 26.347 20.2402 26.1486C20.4385 25.9503 20.6913 25.8152 20.9664 25.7604C21.2416 25.7057 21.5268 25.7338 21.7859 25.8412C22.0451 25.9485 22.2666 26.1303 22.4225 26.3636C22.5784 26.5968 22.6615 26.8711 22.6615 27.1516C22.6615 27.5278 22.5121 27.8885 22.2461 28.1546C21.9801 28.4206 21.6193 28.57 21.2431 28.57Z" fill="white"/>
</svg>
